<?xml version="1.0" standalone="no"?>
<!DOCTYPE svg PUBLIC "-//W3C//DTD SVG 20010904//EN"
 "http://www.w3.org/TR/2001/REC-SVG-20010904/DTD/svg10.dtd">
<svg version="1.0" xmlns="http://www.w3.org/2000/svg"
 width="700.000000pt" height="700.000000pt" viewBox="0 0 700.000000 700.000000"
 preserveAspectRatio="xMidYMid meet">
<metadata>
Created by potrace 1.14, written by Peter Selinger 2001-2017
</metadata>
<g transform="translate(0.000000,700.000000) scale(0.100000,-0.100000)"
fill="#000000" stroke="none">
<path d="M6224 6989 c-347 -40 -609 -326 -619 -675 -2 -60 7 -147 19 -189 2
-5 6 -23 11 -40 12 -46 73 -164 108 -209 259 -338 751 -373 1047 -76 139 140
202 286 204 475 0 61 -2 128 -6 150 -10 62 -51 168 -89 232 -45 76 -160 191
-236 235 -51 30 -201 93 -211 88 -1 -1 -22 2 -46 5 -67 10 -115 11 -182 4z"/>
<path d="M3397 6294 c-1 -1 -47 -5 -102 -8 -268 -18 -564 -86 -818 -187 -699
-278 -1267 -836 -1550 -1520 -35 -83 -107 -284 -106 -294 0 -3 -6 -29 -15 -58
-16 -57 -52 -228 -61 -292 -3 -22 -7 -53 -10 -70 -16 -109 -19 -173 -20 -355
0 -176 10 -363 20 -380 2 -3 6 -32 10 -64 3 -33 8 -62 10 -65 1 -3 6 -23 9
-45 32 -200 150 -532 268 -756 74 -140 214 -359 230 -360 10 0 748 739 748
750 0 5 -13 31 -28 57 -67 116 -154 337 -178 455 -2 13 -7 37 -10 53 -31 151
-41 407 -22 555 7 60 40 217 62 300 15 55 66 180 108 264 167 338 418 594 758
774 153 81 381 157 528 176 23 3 61 9 85 12 105 16 329 11 465 -11 210 -33
448 -117 609 -216 l31 -19 377 376 377 377 -23 19 c-61 47 -275 177 -384 232
-259 132 -584 235 -850 271 -27 4 -61 8 -75 10 -86 12 -433 27 -443 19z"/>
<path d="M5374 4791 c-202 -203 -370 -374 -372 -380 -2 -5 9 -29 24 -52 66
-106 135 -281 178 -455 21 -86 29 -130 42 -244 6 -44 4 -295 -2 -341 -28 -221
-79 -399 -170 -584 -289 -594 -890 -974 -1544 -978 -164 -1 -244 6 -380 34
-146 31 -301 85 -436 154 l-123 63 -371 -372 c-204 -204 -371 -375 -371 -379
0 -29 330 -225 535 -317 213 -95 530 -185 731 -206 33 -4 62 -8 65 -9 27 -16
397 -25 525 -13 167 16 190 18 205 23 8 2 33 6 55 9 59 6 267 54 338 77 34 11
69 22 77 24 44 10 219 80 330 132 72 34 300 160 310 172 3 3 39 29 80 56 144
97 325 254 460 401 258 280 453 602 575 948 39 111 86 271 99 336 3 14 7 36
10 50 18 85 21 102 43 275 10 76 10 458 1 550 -14 128 -18 159 -44 302 -46
255 -207 660 -352 888 -83 130 -135 205 -142 205 -3 0 -173 -166 -376 -369z"/>
<path d="M621 1398 c-282 -33 -515 -231 -597 -508 -19 -67 -26 -234 -13 -310
45 -252 231 -461 484 -543 72 -24 109 -29 205 -29 221 -1 447 116 566 292 63
93 105 192 122 288 11 64 7 244 -6 269 -6 10 -10 20 -10 23 -2 43 -66 182
-115 244 -40 53 -111 121 -165 158 -37 26 -139 77 -167 85 -134 35 -207 43
-304 31z"/>
</g>
</svg>
