<svg id="node-js" width="84" height="84" viewBox="0 0 84 84" fill="none" xmlns="http://www.w3.org/2000/svg">
<path d="M74.006 19.9067L45.0673 3.1034C43.2423 2.0639 40.866 2.0639 39.0265 3.1034L9.77878 19.9067C7.89534 20.9902 6.5625 23.0265 6.5625 25.2046V58.7665C6.5625 60.9446 7.93013 62.9816 9.81356 64.071L17.5409 68.46C21.2343 70.2791 22.5396 70.2791 24.2202 70.2791C29.6888 70.2791 32.8125 66.9723 32.8125 61.2045V28.0704C32.8125 27.6025 32.569 26.9063 32.1097 26.9063H28.4196C27.9523 26.9063 26.9062 27.6025 26.9062 28.0698V61.2039C26.9062 63.7606 24.5936 66.3049 20.2716 64.1439L12.287 59.5416C12.0087 59.3906 11.8125 59.0868 11.8125 58.7665V25.2046C11.8125 24.8883 12.1767 24.5707 12.4569 24.4086L41.6102 7.63415C41.8825 7.47993 42.2828 7.47993 42.5545 7.63415L71.3521 24.4046C71.6277 24.5707 71.5306 24.8784 71.5306 25.2046V58.7665C71.5306 59.0868 71.6507 59.3985 71.3783 59.5527L42.4469 76.337C42.1988 76.486 41.8911 76.486 41.6194 76.337L34.1992 71.908C33.9754 71.778 33.7096 71.7314 33.495 71.8515C31.4304 73.0216 31.0498 73.1771 29.1132 73.8485C28.6368 74.0145 27.9339 74.3026 29.3823 75.1144L39.0935 80.8592C40.0206 81.3947 41.0724 81.6767 42.1431 81.6769C43.2206 81.6769 44.2759 81.3973 45.2058 80.8592L74.0053 64.071C75.8887 62.9738 76.7812 60.9446 76.7812 58.7665V25.2046C76.7812 23.0265 75.8888 20.9954 74.006 19.9067ZM51.1284 53.4483C43.4333 53.4483 41.7382 51.3253 41.1731 47.4987C41.1075 47.0866 40.7577 46.5938 40.3384 46.5938H36.5774C36.1121 46.5938 35.7381 47.1581 35.7381 47.6214C35.7381 52.521 38.4018 58.4575 51.1291 58.4575C60.3422 58.4575 65.6243 54.8776 65.6243 48.5422C65.6243 42.2605 61.3804 40.612 52.4455 39.4295C43.4142 38.2358 42.4968 37.6327 42.4968 35.5169C42.4968 33.7726 43.2738 31.4462 49.961 31.4462C55.9361 31.4462 58.1385 32.7285 59.0448 36.7559C59.1222 37.1346 59.4681 37.4063 59.8585 37.4063H63.6346C63.8669 37.4063 64.0887 37.3124 64.2515 37.1464C64.409 36.9679 64.4923 36.7441 64.4713 36.5039C63.8866 29.5687 59.2791 26.3366 49.9603 26.3366C41.6712 26.3366 36.7264 29.8371 36.7264 35.7046C36.7264 42.0689 41.6463 43.8277 49.6033 44.6145C59.1222 45.5477 59.8625 46.9389 59.8625 48.8112C59.8625 52.0629 57.2519 53.4483 51.1284 53.4483Z" fill="#83CD29"/>
</svg>
